<svg xmlns="http://www.w3.org/2000/svg" viewBox="0 0 612 612">
	<path fill="currentColor" d="M549.33 384.88C512.8 430.24 464.12 467.1 412.92 494.33C398.79 501.85 384.47 508.67 369.96 514.65C355.45 520.61 340.79 525.81 326.07 530.26C263.61 549.17 193.24 554.78 129.59 538.14C89.44 527.65 51.16 505.76 27.22 471.86C7.26 443.59 -1.7 408.17 0.26 373.62C2.4 336.09 17.11 299.45 39.11 269.16C40 267.93 40.82 266.81 41.56 265.78C42.31 264.76 42.98 263.81 43.6 263.04C46.08 259.9 47.35 258.28 47.35 258.28C48.88 256.34 51.69 256 53.64 257.53C55.14 258.71 55.67 260.67 55.13 262.4C40.17 309.99 30.05 367.73 57.63 412.86C110.56 499.43 252.11 462.2 326.22 430.7C387.62 404.61 454.22 364.82 496.76 312.59C505.28 302.13 512.98 291.01 519.52 279.47C526.02 267.93 531.36 255.95 535.02 243.91C538.72 231.88 540.91 219.84 541.13 208.03C541.88 167.69 518.34 131.55 481.42 115.55C442.9 98.85 395.84 101.88 356.04 112.2C341.07 116.05 326.46 121.28 312.37 127.51C274.14 144.4 240.57 171.33 213.62 203.52C194.52 226.32 180.66 255.61 184.27 285.13C189.32 326.44 224.58 343.81 262.39 340.86C307.8 337.09 351.64 313.89 381.92 280.14C390.52 270.56 398.33 259.61 400.8 246.97C402.22 239.68 401.65 231.65 397.41 225.56C390.9 216.22 377.51 212.85 366.75 211.85C363.69 211.58 360.62 211.48 357.57 211.55C354.52 211.62 351.5 211.87 348.54 212.22C342.62 212.95 336.97 214.21 331.74 215.81C329.11 216.59 326.61 217.5 324.21 218.45C321.8 219.38 319.54 220.41 317.37 221.47C308.13 226.12 300.45 231.04 294.12 235.17C287.83 239.33 282.95 242.68 279.64 244.92C277.98 246.04 276.71 246.88 275.87 247.45C275.01 248.01 274.58 248.3 274.58 248.3C272.5 249.66 269.71 249.09 268.35 247.01C267.34 245.49 267.39 243.57 268.31 242.12C268.31 242.12 268.59 241.68 269.14 240.82C269.7 239.96 270.53 238.68 271.63 237C273.87 233.65 277.19 228.68 281.92 222.33C284.27 219.14 287.02 215.63 290.23 211.83C291.84 209.94 293.56 207.96 295.43 205.95C296.38 204.94 297.32 203.92 298.4 202.85C299.39 201.84 300.41 200.82 301.45 199.78C306.03 195.38 311.36 191.06 317.47 187.03C323.59 183.02 330.48 179.25 338.25 176.11C342.12 174.51 346.22 173.08 350.54 171.85C354.86 170.61 359.41 169.57 364.2 168.83C400.64 163.13 439.08 178.29 455.32 212.97C467.26 238.46 464.61 269.06 453.39 294.88C440.9 323.66 418.71 349.13 394.4 368.65C351.73 402.9 294.21 425.54 238.96 419.39C198.87 414.93 159.66 393.22 139.87 358.07C124.47 330.72 121.81 297.14 129.77 266.78C150.14 189.11 233.67 126.39 301.46 95.17C366.27 65.33 448.87 51.48 518.23 78.36C580.58 102.53 607.61 150.15 611.5 203.37C616.06 265.78 588.79 335.88 549.33 384.88Z" />
</svg>