<svg width="18" height="18" viewBox="0 0 18 18" fill="none" xmlns="http://www.w3.org/2000/svg">
<rect width="18" height="18" rx="2" fill="#01A9F2"/>
<path fill-rule="evenodd" clip-rule="evenodd" d="M16.8748 14.9062C16.8241 14.8853 12.4498 13.0777 10.2264 12.0185C8.7264 13.8473 6.79164 14.9568 4.78283 14.9568C3.53647 14.7665 3.06372 14.338 2.4375 13.2656L2.50053 13.2831C2.95594 13.6096 3.60986 13.8235 4.45488 13.8264L4.4657 13.8294C4.79889 13.8294 5.18861 13.7106 5.59479 13.5245C7.06715 12.852 8.75883 11.2898 8.75883 11.2898C8.75883 11.2898 5.8588 9.97767 4.44933 9.99386C4.30353 9.99555 4.15705 10.0034 4.00951 10.0178C4.00951 10.0178 3.52543 10.0732 3.10968 10.2119C2.72229 10.3411 2.39631 10.5914 2.35365 10.625C2.3499 10.6272 2.34615 10.6295 2.34241 10.6317C2.01251 10.8299 1.76316 11.1383 1.61366 11.3232C1.50886 11.4529 1.45313 11.5218 1.45313 11.4495C1.45312 11.274 1.48503 10.6319 1.84085 10.0728C2.19155 9.65014 2.78813 9.24636 3.71404 9.02032C5.16248 8.66777 7.46762 9.24046 9.62813 9.9468C10.0168 9.23753 10.3437 8.45641 10.5872 7.62474H3.92923V6.95675H7.36236V5.7588H3.20422V5.09036H7.36236V3.38158C7.36236 3.38158 7.36236 3.09375 7.65677 3.09375H9.33507V5.0903H13.4457V5.75891H9.33507V6.95675H12.6904C12.3694 8.25989 11.8819 9.45941 11.2699 10.5124C11.6309 10.6417 11.9787 10.7687 12.3078 10.8889C12.907 11.1076 13.4438 11.3036 13.8836 11.4495C16.156 12.2028 16.7929 12.2948 16.875 12.3044L16.8748 14.9062Z" fill="white"/>
</svg>
